# xmcd
# 
# Track frame offsets:
#     150
#     15242
#     27732
#     43605
#     59837
#     79372
#     95472
#     110360
#     123535
#     150290
#     172650
#     188320
# 
# Disc length: 2729
# 
# Revision: 7
# Processed by: cddbd v1.5.2PL0 Copyright (c) Steve Scherf et al.
# Submitted via: fre:ac v1.0.31
# 
DISCID=8b0aa70c
DTITLE=The Darkness - Permission to Land
DYEAR=2003
DGENRE=Hard Rock
TTITLE0=Black Shuck
TTITLE1=Get Your Hands Off My Woman
TTITLE2=Growing on Me
TTITLE3=I Believe in a Thing Called Love
TTITLE4=Love Is Only a Feeling
TTITLE5=Givin' Up
TTITLE6=Stuck in a Rut
TTITLE7=Friday Night
TTITLE8=Love on the Rocks with No Ice
TTITLE9=Holding My Own
TTITLE10=The Best of Me
TTITLE11=Makin' Out
EXTD=YEAR: 2003
EXTT0=
EXTT1=
EXTT2=
EXTT3=
EXTT4=
EXTT5=
EXTT6=
EXTT7=
EXTT8=
EXTT9=
EXTT10=
EXTT11=
PLAYORDER=
